<svg width="85" height="59" viewBox="0 0 85 59" fill="none" xmlns="http://www.w3.org/2000/svg">
<path d="M61.0329 0.240387C59.0442 0.828463 57.3597 1.51593 56.0079 2.27795C52.5895 4.21612 50.3743 7.07368 49.3126 10.8838C49.1994 11.2896 49.1074 11.6458 49.1074 11.6789C49.1074 11.712 49.3126 11.6706 49.5603 11.5961C52.4975 10.6436 55.4205 11.4304 57.3527 13.6999C58.117 14.5944 58.7894 15.9362 59.0866 17.1455C59.2707 17.9158 59.3556 19.7049 59.2423 20.6657C58.8389 24.161 56.744 27.2091 53.9201 28.435C52.9292 28.8657 52.4763 28.9485 51.1952 28.9485C49.8647 28.9485 49.1782 28.8077 48.1307 28.319C47.5645 28.0539 47.3876 27.9297 46.7789 27.3499C46.333 26.9358 45.7527 26.563 45.5828 26.6045C45.4979 26.621 45.42 27.0186 45.2077 28.4929C44.7972 31.3505 44.5212 32.4521 43.9762 33.4129C43.4879 34.2743 42.9358 34.5973 42.1007 34.5062C41.7468 34.4731 41.5699 34.3985 41.308 34.1915C40.3172 33.3963 39.8784 31.7812 39.4749 27.4327C39.4325 26.9275 39.3688 26.5051 39.3405 26.5051C39.3122 26.5051 39.1494 26.6293 38.9795 26.7784C36.4033 29.0727 32.8009 29.4537 29.7717 27.7558C28.5685 27.0766 27.3795 25.9004 26.6718 24.6829C26.2471 23.954 25.8579 22.9352 25.6314 21.9827C25.4544 21.2289 25.4403 21.0384 25.4403 19.6304C25.4403 18.3051 25.4615 18.0069 25.596 17.4271C26.1551 15.0086 27.2875 13.294 29.0286 12.2173C30.345 11.4056 31.5269 11.2068 33.4237 11.4635C33.9616 11.5381 34.7047 11.5961 35.0727 11.5961C35.731 11.5961 35.738 11.5961 35.6885 11.4056C35.5611 10.9086 35.1152 9.67447 34.8958 9.19407C34.2942 7.89367 34.0182 7.41327 33.2963 6.39449C31.1447 3.37128 27.6414 1.27573 23.1755 0.348063L22.4111 0.182407L22.4536 0.555132C22.5031 1.01897 22.7155 1.59048 22.9632 1.93007C23.3878 2.52643 23.8125 2.81633 25.964 4.00077C26.417 4.24925 27.0398 4.76278 27.3371 5.13551C27.8042 5.72359 27.967 6.18742 27.974 6.99913C27.9811 7.95993 27.8325 8.32438 26.5231 10.4779C25.6809 11.8694 25.2987 12.6149 24.8812 13.6585C23.9965 15.9114 23.6992 17.3692 23.6992 19.531C23.6992 21.9578 24.1168 23.8049 25.0864 25.7016C25.6739 26.8364 26.6081 28.0291 27.5565 28.8325C28.2147 29.3875 29.6019 30.1743 30.3875 30.4394C32.4753 31.1351 34.7755 31.0523 37.1323 30.1826C37.5499 30.0335 37.8896 29.9176 37.8967 29.9259C37.9037 29.9341 38.0099 30.4063 38.1373 30.9778C38.93 34.5228 40.0694 36.2787 41.8105 36.6266C42.8792 36.842 44.0045 36.4361 44.7123 35.5913C45.4554 34.705 45.7173 34.0838 46.5595 31.1517C46.7506 30.4974 46.9204 29.9507 46.9346 29.9341C46.9488 29.9093 47.2602 30.017 47.6282 30.1578C50.4521 31.2428 53.184 31.1683 55.4559 29.9424C57.6216 28.7745 59.4334 26.2731 60.2827 23.2913C60.7428 21.6762 60.8206 21.0302 60.8206 18.8849C60.8206 17.1538 60.7994 16.8391 60.6508 16.0274C60.4172 14.7435 60.0775 13.5757 59.6316 12.5237C59.1079 11.2896 58.6691 10.5359 57.9967 9.71588C57.1757 8.70538 56.9209 8.24155 56.8218 7.55408C56.6732 6.51045 56.9563 5.54136 57.6216 4.77935C58.0392 4.31551 58.478 4.00077 59.6882 3.29673C60.8843 2.60926 61.4717 2.17856 61.7478 1.79755C62.0096 1.43311 62.2007 0.911291 62.2503 0.414325L62.2927 0.000186085L62.0521 0.00846886C61.9176 0.00846886 61.4647 0.116145 61.0329 0.240387Z" fill="#FAFAFC"/>
<path d="M40.65 3.12264C38.6966 3.24688 35.6038 3.79354 35.3561 4.05859C35.3207 4.09172 35.4976 4.56384 35.7524 5.10222C36.0001 5.64888 36.4672 6.68423 36.7928 7.41311C37.3519 8.6721 38.0384 10.2293 38.5197 11.306C38.6471 11.5793 38.8877 12.1757 39.0576 12.6313C40.5934 16.6898 41.7895 18.4789 42.6742 18.0565C43.1413 17.8246 43.7712 16.8803 44.5426 15.2403C45.0027 14.2547 49.4049 3.88465 49.3766 3.85152C49.3624 3.84324 48.9448 3.75213 48.4353 3.65273C46.0572 3.19718 42.9148 2.98183 40.65 3.12264Z" fill="#E11F1C"/>
<path d="M32.0998 13.584C30.0686 13.9899 28.5894 15.4228 28.0374 17.5183C27.9383 17.9159 27.91 18.2721 27.917 19.2577C27.9241 20.351 27.9454 20.5912 28.1152 21.229C28.8725 24.1694 30.6631 26.2649 32.8996 26.8447C33.572 27.0187 34.853 26.9772 35.5324 26.7702C37.9671 26.0082 39.5524 24.335 40.2602 21.7839C40.4725 21.0219 40.5291 19.6056 40.3734 18.885C39.9912 17.0959 38.8376 15.6133 37.0399 14.5779C36.1552 14.0644 35.2422 13.7165 34.4566 13.584C33.9117 13.4929 32.5811 13.4929 32.0998 13.584ZM35.0724 15.3648C36.6153 15.8452 37.8255 16.7894 38.4908 18.0236C38.873 18.7276 38.9862 19.1335 39.0358 19.9203C39.1702 22.1153 37.7406 24.2853 35.766 24.89C33.8692 25.4781 31.6681 24.7657 30.3729 23.1589C29.3892 21.9413 28.9787 20.293 29.2476 18.6448C29.5166 16.9468 30.3092 15.8866 31.6964 15.3648C32.5953 15.0169 33.9824 15.0169 35.0724 15.3648Z" fill="#E11F1C"/>
<path d="M33.8555 16.1848C32.4825 16.5161 31.7111 17.5763 31.6403 19.2328C31.6049 20.1357 31.7748 20.8728 32.1923 21.6017C32.4967 22.1318 32.7444 22.3886 33.254 22.7033C33.5371 22.8773 33.6645 22.9021 34.351 22.9021C35.0587 22.9021 35.1649 22.8773 35.54 22.6619C36.7007 21.9993 37.4367 20.2765 37.2386 18.6862C36.9979 16.7149 35.6886 15.7541 33.8555 16.1848Z" fill="white"/>
<path d="M50.3812 13.584C49.6806 13.7165 48.7322 14.0809 48.0103 14.4951C46.1843 15.5387 45.1581 16.7811 44.606 18.595C44.4078 19.2577 44.422 20.8977 44.6343 21.7011C45.3704 24.451 47.2955 26.3477 49.8787 26.8778C50.6289 27.0352 51.0536 27.0352 51.8321 26.8778C53.7572 26.4802 55.4275 24.8982 56.3688 22.5708C56.8925 21.2787 56.9987 20.7072 56.9987 19.1748C56.9916 17.9407 56.9774 17.8082 56.8005 17.2284C56.3759 15.87 55.661 14.9092 54.5994 14.288C53.6015 13.6999 53.1485 13.5757 51.8675 13.5426C51.2659 13.526 50.5936 13.5426 50.3812 13.584ZM52.9999 15.2819C54.7268 15.8037 55.753 17.394 55.7601 19.5641C55.7672 22.2146 54.1748 24.3599 51.7543 24.9479C50.5511 25.2378 49.2984 25.0805 48.3075 24.5172C47.4158 24.012 46.7505 23.25 46.3258 22.2395C45.7243 20.8065 45.7101 19.5641 46.2834 18.2969C47.0053 16.7149 48.8808 15.3979 50.8059 15.1246C51.2872 15.0583 52.554 15.1494 52.9999 15.2819Z" fill="#E11F1C"/>
<path d="M49.4967 16.1848C48.789 16.3918 48.2865 16.8557 47.9751 17.5928C47.1965 19.4399 47.8901 21.8253 49.4613 22.6867C49.8011 22.8773 49.9426 22.9021 50.5937 22.9021C51.2449 22.9021 51.3793 22.8773 51.6907 22.695C52.6674 22.1235 53.2832 20.8397 53.2832 19.3819C53.2832 18.2969 53.0355 17.5846 52.4339 16.9468C51.7544 16.2262 50.4876 15.9032 49.4967 16.1848Z" fill="#FAFAFC"/>
<path d="M61.0339 0.240142C59.0451 0.828219 57.3607 1.51569 56.0089 2.2777C52.5905 4.21587 50.3752 7.07343 49.3136 10.8835C49.2004 11.2894 49.1084 11.6455 49.1084 11.6787C49.1084 11.7118 49.3136 11.6704 49.5613 11.5958C52.4985 10.6433 55.4215 11.4302 57.3536 13.6997C58.118 14.5942 58.7904 15.936 59.0876 17.1453C59.2716 17.9156 59.3566 19.7047 59.2433 20.6655C58.8399 24.1608 56.745 27.2089 53.9211 28.4347C52.9302 28.8654 52.4772 28.9482 51.1962 28.9482C49.8657 28.9482 49.1791 28.8074 48.1317 28.3187C47.5655 28.0537 47.3885 27.9295 46.7799 27.3497C46.334 26.9355 45.7536 26.5628 45.5838 26.6042C45.4989 26.6208 45.421 27.0184 45.2087 28.4927C44.7982 31.3502 44.5222 32.4519 43.9772 33.4127C43.4888 34.2741 42.9368 34.5971 42.1017 34.506C41.7478 34.4728 41.5708 34.3983 41.309 34.1912C40.3181 33.3961 39.8793 31.7809 39.4759 27.4325C39.4335 26.9272 39.3698 26.5048 39.3414 26.5048C39.3131 26.5048 39.1504 26.6291 38.9805 26.7782C36.4043 29.0725 32.8019 29.4535 29.7727 27.7555C28.5695 27.0763 27.3805 25.9002 26.6728 24.6826C26.2481 23.9537 25.8588 22.9349 25.6324 21.9824C25.4554 21.2287 25.4413 21.0382 25.4413 19.6301C25.4413 18.3049 25.4625 18.0067 25.597 17.4269C26.1561 15.0083 27.2885 13.2938 29.0296 12.217C30.346 11.4053 31.5279 11.2065 33.4247 11.4633C33.9626 11.5378 34.7057 11.5958 35.0737 11.5958C35.7319 11.5958 35.739 11.5958 35.6895 11.4053C35.5621 10.9084 35.1162 9.67422 34.8968 9.19382C34.2952 7.89343 34.0192 7.41303 33.2973 6.39425C31.1457 3.37103 27.6424 1.27549 23.1765 0.347818L22.4121 0.182163L22.4546 0.554888C22.5041 1.01872 22.7164 1.59023 22.9642 1.92983C23.3888 2.52619 23.8135 2.81609 25.965 4.00052C26.418 4.24901 27.0408 4.76254 27.338 5.13526C27.8051 5.72334 27.9679 6.18718 27.975 6.99889C27.9821 7.95969 27.8335 8.32413 26.5241 10.4777C25.6819 11.8692 25.2997 12.6146 24.8822 13.6582C23.9975 15.9112 23.7002 17.3689 23.7002 19.5307C23.7002 21.9576 24.1178 23.8046 25.0874 25.7014C25.6748 26.8361 26.6091 28.0289 27.5574 28.8323C28.2156 29.3872 29.6028 30.1741 30.3884 30.4391C32.4763 31.1349 34.7765 31.0521 37.1333 30.1824C37.5508 30.0333 37.8906 29.9173 37.8976 29.9256C37.9047 29.9339 38.0109 30.406 38.1383 30.9775C38.9309 34.5225 40.0704 36.2785 41.8115 36.6264C42.8802 36.8417 44.0055 36.4359 44.7133 35.591C45.4564 34.7048 45.7183 34.0836 46.5605 31.1515C46.7516 30.4971 46.9214 29.9505 46.9356 29.9339C46.9497 29.909 47.2611 30.0167 47.6292 30.1575C50.4531 31.2426 53.185 31.168 55.4569 29.9422C57.6226 28.7743 59.4344 26.2729 60.2837 23.2911C60.7437 21.676 60.8216 21.0299 60.8216 18.8847C60.8216 17.1536 60.8004 16.8388 60.6517 16.0271C60.4182 14.7433 60.0785 13.5754 59.6326 12.5235C59.1088 11.2894 58.67 10.5356 57.9977 9.71564C57.1767 8.70514 56.9219 8.2413 56.8228 7.55383C56.6742 6.5102 56.9573 5.54112 57.6226 4.7791C58.0401 4.31527 58.479 4.00052 59.6892 3.29649C60.8853 2.60902 61.4727 2.17831 61.7487 1.7973C62.0106 1.43286 62.2017 0.911047 62.2512 0.414081L62.2937 -5.80558e-05L62.0531 0.00822472C61.9186 0.00822472 61.4656 0.115901 61.0339 0.240142Z" fill="#FAFAFC"/>
<path d="M40.651 3.12264C38.6976 3.24688 35.6048 3.79354 35.357 4.05859C35.3217 4.09172 35.4986 4.56384 35.7534 5.10222C36.0011 5.64888 36.4682 6.68423 36.7938 7.41311C37.3529 8.6721 38.0394 10.2293 38.5207 11.306C38.6481 11.5793 38.8887 12.1757 39.0586 12.6313C40.5944 16.6898 41.7905 18.4789 42.6752 18.0565C43.1423 17.8246 43.7722 16.8803 44.5436 15.2403C45.0036 14.2547 49.4058 3.88465 49.3775 3.85152C49.3634 3.84324 48.9458 3.75213 48.4362 3.65273C46.0582 3.19718 42.9158 2.98183 40.651 3.12264Z" fill="white"/>
<path d="M32.1008 13.5838C30.0696 13.9896 28.5904 15.4225 28.0383 17.5181C27.9393 17.9156 27.9109 18.2718 27.918 19.2575C27.9251 20.3508 27.9463 20.591 28.1162 21.2288C28.8735 24.1691 30.6641 26.2647 32.9006 26.8445C33.5729 27.0184 34.854 26.977 35.5334 26.7699C37.968 26.0079 39.5534 24.3348 40.2611 21.7837C40.4735 21.0217 40.5301 19.6053 40.3744 18.8847C39.9922 17.0957 38.8386 15.613 37.0409 14.5777C36.1562 14.0642 35.2432 13.7163 34.4576 13.5838C33.9126 13.4926 32.5821 13.4926 32.1008 13.5838ZM35.0734 15.3646C36.6162 15.845 37.8265 16.7892 38.4918 18.0233C38.874 18.7274 38.9872 19.1332 39.0367 19.9201C39.1712 22.115 37.7416 24.2851 35.7669 24.8897C33.8702 25.4778 31.6691 24.7655 30.3739 23.1586C29.3901 21.9411 28.9796 20.2928 29.2486 18.6445C29.5175 16.9466 30.3102 15.8864 31.6974 15.3646C32.5962 15.0167 33.9834 15.0167 35.0734 15.3646Z" fill="white"/>
<path d="M33.8565 16.1845C32.4835 16.5158 31.712 17.576 31.6413 19.2326C31.6059 20.1354 31.7757 20.8726 32.1933 21.6015C32.4976 22.1316 32.7454 22.3883 33.2549 22.7031C33.538 22.877 33.6654 22.9019 34.3519 22.9019C35.0597 22.9019 35.1659 22.877 35.541 22.6617C36.7017 21.999 37.4377 20.2762 37.2396 18.6859C36.9989 16.7146 35.6896 15.7538 33.8565 16.1845Z" fill="white"/>
<path d="M50.3822 13.5837C49.6815 13.7162 48.7332 14.0807 48.0113 14.4948C46.1853 15.5385 45.159 16.7809 44.607 18.5948C44.4088 19.2574 44.423 20.8974 44.6353 21.7008C45.3714 24.4507 47.2964 26.3475 49.8797 26.8776C50.6299 27.0349 51.0546 27.0349 51.8331 26.8776C53.7582 26.48 55.4285 24.898 56.3698 22.5705C56.8935 21.2784 56.9997 20.7069 56.9997 19.1746C56.9926 17.9405 56.9784 17.8079 56.8015 17.2281C56.3768 15.8698 55.662 14.909 54.6004 14.2878C53.6025 13.6997 53.1495 13.5754 51.8685 13.5423C51.2669 13.5257 50.5945 13.5423 50.3822 13.5837ZM53.0009 15.2817C54.7278 15.8035 55.754 17.3938 55.7611 19.5639C55.7682 22.2144 54.1757 24.3596 51.7552 24.9477C50.5521 25.2376 49.2994 25.0802 48.3085 24.517C47.4167 24.0117 46.7515 23.2497 46.3268 22.2392C45.7252 20.8063 45.7111 19.5639 46.2844 18.2966C47.0063 16.7146 48.8818 15.3976 50.8069 15.1243C51.2881 15.0581 52.555 15.1492 53.0009 15.2817Z" fill="white"/>
<path d="M49.4977 16.1845C48.79 16.3916 48.2875 16.8554 47.976 17.5926C47.1975 19.4397 47.8911 21.8251 49.4623 22.6865C49.802 22.877 49.9436 22.9019 50.5947 22.9019C51.2458 22.9019 51.3803 22.877 51.6917 22.6948C52.6684 22.1233 53.2842 20.8394 53.2842 19.3817C53.2842 18.2966 53.0364 17.5843 52.4349 16.9465C51.7554 16.2259 50.4885 15.9029 49.4977 16.1845Z" fill="#FAFAFC"/>
<path d="M17.7322 27.9126C16.855 28.1577 16.3433 28.6056 15.9534 29.4678L15.7422 29.9326V43.414V56.8953L15.9534 57.3602C16.2539 58.0279 16.6113 58.4167 17.2205 58.7294C17.6916 58.9661 17.8297 58.9999 18.4552 58.9999C19.6736 59.0083 20.5589 58.5181 21.0219 57.5715L21.2656 57.0728L21.29 43.5323C21.3062 30.0087 21.3062 29.9834 21.1356 29.5185C20.8351 28.6817 20.0635 28.0478 19.0969 27.8618C18.5526 27.752 18.2683 27.7604 17.7322 27.9126Z" fill="white"/>
<path d="M65.7641 27.8333C64.8544 28.0362 64.0908 28.6701 63.7659 29.5069L63.5791 29.9886L63.5547 42.836C63.5466 50.2909 63.5629 55.9708 63.6116 56.385C63.7091 57.3147 64.0015 57.9233 64.5538 58.3628C65.1387 58.8192 65.6341 58.9798 66.4708 58.9714C67.0962 58.9714 67.2343 58.9376 67.7054 58.7009C68.3146 58.3882 68.672 57.9994 68.9726 57.3316L69.1837 56.8668L69.2081 43.7658C69.2244 34.5697 69.2 30.4958 69.1431 30.107C68.9238 28.7546 67.9897 27.9094 66.5926 27.7995C66.3246 27.7741 65.9509 27.791 65.7641 27.8333Z" fill="white"/>
<path d="M11.234 30.1693C10.3242 30.3807 9.60131 31.0146 9.29265 31.8682L9.12207 32.35V43.414V54.478L9.29265 54.9682C9.5282 55.6106 10.0481 56.1769 10.6897 56.4812C11.1284 56.6925 11.2908 56.7263 11.9244 56.7178C12.5498 56.7178 12.7285 56.684 13.159 56.4812C13.7764 56.1853 14.3125 55.619 14.5318 55.0358C14.678 54.6301 14.6861 54.2498 14.6861 43.3717V32.1303L14.4587 31.6485C13.9145 30.4905 12.5417 29.8651 11.234 30.1693Z" fill="white"/>
<path d="M72.4445 30.1386C71.5673 30.333 70.82 30.9331 70.4626 31.7361L70.292 32.1249V43.3664C70.292 54.2444 70.3001 54.6248 70.4463 55.0305C70.6656 55.6137 71.2017 56.18 71.8191 56.4758C72.2496 56.6787 72.4283 56.7125 73.0537 56.7125C73.6873 56.7209 73.8497 56.6871 74.2884 56.4758C74.9057 56.18 75.4418 55.6137 75.6611 55.0305C75.8073 54.6248 75.8154 54.2444 75.8154 43.3664V32.1249L75.588 31.6431C75.06 30.519 73.6954 29.8766 72.4445 30.1386Z" fill="white"/>
<path d="M4.91442 33.3253C4.47579 33.469 4.0128 33.7986 3.76912 34.1283C3.37923 34.6861 3.35486 34.9059 3.35486 37.7627V40.4421L2.72129 40.4928C1.83592 40.5604 1.24296 40.814 0.7556 41.3127C0.251994 41.8451 0.00831326 42.4875 0.000190573 43.2989C-0.0160548 44.9725 1.0074 46.0882 2.65631 46.1896L3.35486 46.2403V48.9197C3.35486 51.9794 3.38735 52.1653 3.96406 52.7739C4.45954 53.281 5.08499 53.5092 5.87289 53.467C6.87198 53.4078 7.53804 52.9598 7.91981 52.0893L8.10663 51.6666V43.3327V35.0073L7.86295 34.5086C7.3431 33.4436 6.08408 32.9449 4.91442 33.3253Z" fill="white"/>
<path d="M78.3939 32.6115C77.7847 32.8397 77.403 33.1947 77.1187 33.7694L76.875 34.2766V42.602V50.9275L77.0618 51.3501C77.4436 52.2207 78.1096 52.6687 79.1087 52.7278C79.9048 52.7701 80.4977 52.5503 81.0094 52.0263C81.6024 51.4008 81.6268 51.2571 81.6268 48.1805V45.5012L82.3253 45.4504C83.7955 45.3406 84.7134 44.5376 84.9571 43.1261C85.1845 41.7822 84.5022 40.4298 83.3569 39.9818C83.1051 39.8889 82.6177 39.779 82.2603 39.7536L81.6268 39.7029V37.0236C81.6268 34.0061 81.5943 33.8117 81.0663 33.237C80.4084 32.5354 79.3037 32.2734 78.3939 32.6115Z" fill="white"/>
<path d="M25.3552 42.7C25.9012 42.7 26.3752 42.79 26.7772 42.97C27.1852 43.15 27.4972 43.408 27.7132 43.744C27.9292 44.08 28.0372 44.479 28.0372 44.941C28.0372 45.397 27.9292 45.796 27.7132 46.138C27.4972 46.474 27.1852 46.732 26.7772 46.912C26.3752 47.092 25.9012 47.182 25.3552 47.182H23.9332V49H22.7632V42.7H25.3552ZM25.3012 46.192C25.8112 46.192 26.1982 46.084 26.4622 45.868C26.7262 45.652 26.8582 45.343 26.8582 44.941C26.8582 44.539 26.7262 44.23 26.4622 44.014C26.1982 43.798 25.8112 43.69 25.3012 43.69H23.9332V46.192H25.3012ZM31.24 49.063C30.754 49.063 30.316 48.958 29.926 48.748C29.536 48.538 29.23 48.247 29.008 47.875C28.792 47.497 28.684 47.071 28.684 46.597C28.684 46.123 28.792 45.7 29.008 45.328C29.23 44.956 29.536 44.665 29.926 44.455C30.316 44.245 30.754 44.14 31.24 44.14C31.732 44.14 32.173 44.245 32.563 44.455C32.953 44.665 33.256 44.956 33.472 45.328C33.694 45.7 33.805 46.123 33.805 46.597C33.805 47.071 33.694 47.497 33.472 47.875C33.256 48.247 32.953 48.538 32.563 48.748C32.173 48.958 31.732 49.063 31.24 49.063ZM31.24 48.1C31.654 48.1 31.996 47.962 32.266 47.686C32.536 47.41 32.671 47.047 32.671 46.597C32.671 46.147 32.536 45.784 32.266 45.508C31.996 45.232 31.654 45.094 31.24 45.094C30.826 45.094 30.484 45.232 30.214 45.508C29.95 45.784 29.818 46.147 29.818 46.597C29.818 47.047 29.95 47.41 30.214 47.686C30.484 47.962 30.826 48.1 31.24 48.1ZM36.4648 49.063C35.9668 49.063 35.5768 48.928 35.2948 48.658C35.0188 48.382 34.8808 47.995 34.8808 47.497V42.322H36.0058V47.416C36.0058 47.896 36.2308 48.136 36.6808 48.136C36.8308 48.136 36.9658 48.106 37.0858 48.046L37.1398 48.946C36.9298 49.024 36.7048 49.063 36.4648 49.063ZM37.9043 44.194H39.0293V49H37.9043V44.194ZM38.4713 43.402C38.2673 43.402 38.0963 43.339 37.9583 43.213C37.8203 43.081 37.7513 42.919 37.7513 42.727C37.7513 42.535 37.8203 42.376 37.9583 42.25C38.0963 42.118 38.2673 42.052 38.4713 42.052C38.6753 42.052 38.8463 42.115 38.9843 42.241C39.1223 42.361 39.1913 42.514 39.1913 42.7C39.1913 42.898 39.1223 43.066 38.9843 43.204C38.8523 43.336 38.6813 43.402 38.4713 43.402ZM44.9158 45.778H46.0228V49H45.0598V48.631C44.6098 48.937 44.0458 49.09 43.3678 49.09C42.7858 49.09 42.2518 48.964 41.7658 48.712C41.2798 48.46 40.8898 48.094 40.5958 47.614C40.3078 47.134 40.1638 46.561 40.1638 45.895C40.1638 45.265 40.3108 44.701 40.6048 44.203C40.8988 43.699 41.3038 43.309 41.8198 43.033C42.3418 42.751 42.9268 42.61 43.5748 42.61C44.1028 42.61 44.5828 42.697 45.0148 42.871C45.4468 43.045 45.8098 43.3 46.1038 43.636L45.3658 44.356C44.8858 43.876 44.3068 43.636 43.6288 43.636C43.1848 43.636 42.7888 43.732 42.4408 43.924C42.0988 44.11 41.8288 44.374 41.6308 44.716C41.4388 45.058 41.3428 45.448 41.3428 45.886C41.3428 46.348 41.4388 46.747 41.6308 47.083C41.8288 47.413 42.0898 47.665 42.4138 47.839C42.7378 48.007 43.0918 48.091 43.4758 48.091C43.7458 48.091 44.0038 48.049 44.2498 47.965C44.5018 47.881 44.7238 47.758 44.9158 47.596V45.778ZM52.111 44.194V48.271C52.111 49.963 51.28 50.809 49.618 50.809C49.18 50.809 48.76 50.749 48.358 50.629C47.962 50.515 47.635 50.347 47.377 50.125L47.881 49.279C48.085 49.453 48.334 49.591 48.628 49.693C48.922 49.795 49.231 49.846 49.555 49.846C50.047 49.846 50.407 49.726 50.635 49.486C50.869 49.252 50.986 48.889 50.986 48.397V48.172C50.806 48.37 50.587 48.523 50.329 48.631C50.071 48.733 49.792 48.784 49.492 48.784C48.85 48.784 48.343 48.607 47.971 48.253C47.605 47.899 47.422 47.368 47.422 46.66V44.194H48.547V46.516C48.547 46.942 48.643 47.263 48.835 47.479C49.033 47.689 49.312 47.794 49.672 47.794C50.074 47.794 50.392 47.671 50.626 47.425C50.866 47.179 50.986 46.822 50.986 46.354V44.194H52.111ZM59.65 44.14C60.256 44.14 60.736 44.317 61.09 44.671C61.444 45.019 61.621 45.544 61.621 46.246V49H60.496V46.39C60.496 45.97 60.403 45.655 60.217 45.445C60.031 45.229 59.764 45.121 59.416 45.121C59.038 45.121 58.735 45.247 58.507 45.499C58.279 45.745 58.165 46.099 58.165 46.561V49H57.04V46.39C57.04 45.97 56.947 45.655 56.761 45.445C56.575 45.229 56.308 45.121 55.96 45.121C55.576 45.121 55.27 45.244 55.042 45.49C54.82 45.736 54.709 46.093 54.709 46.561V49H53.584V44.194H54.655V44.806C54.835 44.59 55.06 44.425 55.33 44.311C55.6 44.197 55.9 44.14 56.23 44.14C56.59 44.14 56.908 44.209 57.184 44.347C57.466 44.479 57.688 44.677 57.85 44.941C58.048 44.689 58.303 44.494 58.615 44.356C58.927 44.212 59.272 44.14 59.65 44.14Z" fill="white"/>
</svg>
